<?xml version="1.0" encoding="UTF-8" standalone="no"?>
<!-- Generator: Adobe Illustrator 19.0.0, SVG Export Plug-In . SVG Version: 6.00 Build 0)  -->

<svg
   xmlns:dc="http://purl.org/dc/elements/1.1/"
   xmlns:cc="http://creativecommons.org/ns#"
   xmlns:rdf="http://www.w3.org/1999/02/22-rdf-syntax-ns#"
   xmlns:svg="http://www.w3.org/2000/svg"
   xmlns="http://www.w3.org/2000/svg"
   xmlns:sodipodi="http://sodipodi.sourceforge.net/DTD/sodipodi-0.dtd"
   xmlns:inkscape="http://www.inkscape.org/namespaces/inkscape"
   version="1.1"
   id="Layer_1"
   x="0px"
   y="0px"
   viewBox="0 0 16 16"
   xml:space="preserve"
   sodipodi:docname="calculator.svg"
   width="16"
   height="16"
   inkscape:version="0.92.3 (d244b95, 2018-08-02)"><metadata
   id="metadata63"><rdf:RDF><cc:Work
       rdf:about=""><dc:format>image/svg+xml</dc:format><dc:type
         rdf:resource="http://purl.org/dc/dcmitype/StillImage" /><dc:title></dc:title></cc:Work></rdf:RDF></metadata><defs
   id="defs61" /><sodipodi:namedview
   pagecolor="#ffffff"
   bordercolor="#666666"
   borderopacity="1"
   objecttolerance="10"
   gridtolerance="10"
   guidetolerance="10"
   inkscape:pageopacity="0"
   inkscape:pageshadow="2"
   inkscape:window-width="1366"
   inkscape:window-height="713"
   id="namedview59"
   showgrid="false"
   fit-margin-right="-0.7"
   inkscape:zoom="10.429825"
   inkscape:cx="26.625034"
   inkscape:cy="16.37452"
   inkscape:window-x="0"
   inkscape:window-y="27"
   inkscape:window-maximized="1"
   inkscape:current-layer="Layer_1" />
<path
   style="fill:#e0e0e0;stroke-width:0.02723021"
   d="M 15.07896,7.9743977 H 8.108024 V 1.0034631 h 5.477168 c 0.821562,0 1.493768,0.6722053 1.493768,1.4937679 z"
   id="path2"
   inkscape:connector-curvature="0" />
<g
   id="g8"
   transform="matrix(0.02723021,0,0,0.02723021,1.1370901,1.0034631)">
	<path
   style="fill:#f89231"
   d="M 256,256 H 0 V 54.857 C 0,24.686 24.686,0 54.857,0 H 256 Z"
   id="path4"
   inkscape:connector-curvature="0" />
	<path
   style="fill:#f89231"
   d="M 457.143,512 H 256 V 256 H 512 V 457.143 C 512,487.314 487.314,512 457.143,512"
   id="path6"
   inkscape:connector-curvature="0" />
</g>
<path
   style="fill:#e0e0e0;stroke-width:0.02723021"
   d="M 8.108024,14.945332 H 2.6308578 c -0.8215627,0 -1.4937677,-0.672205 -1.4937677,-1.493768 V 7.9743977 H 8.108024 Z"
   id="path10"
   inkscape:connector-curvature="0" />
<g
   id="g26"
   transform="matrix(0.02723021,0,0,0.02723021,1.1370901,1.0034631)">
	<path
   style="fill:#ffffff"
   d="m 128,192 c -5.486,0 -9.143,-3.657 -9.143,-9.143 V 73.143 c 0,-5.486 3.657,-9.143 9.143,-9.143 5.486,0 9.143,3.657 9.143,9.143 v 109.714 c 0,5.486 -3.657,9.143 -9.143,9.143 z"
   id="path12"
   inkscape:connector-curvature="0" />
	<path
   style="fill:#ffffff"
   d="M 182.857,137.143 H 73.143 C 67.657,137.143 64,133.486 64,128 c 0,-5.486 3.657,-9.143 9.143,-9.143 h 109.714 c 5.486,0 9.143,3.657 9.143,9.143 0,5.486 -3.657,9.143 -9.143,9.143 z"
   id="path14"
   inkscape:connector-curvature="0" />
	<path
   style="fill:#ffffff"
   d="m 82.286,438.857 c -2.743,0 -4.571,-0.914 -6.4,-2.743 -3.657,-3.657 -3.657,-9.143 0,-12.8 l 91.429,-91.429 c 3.657,-3.657 9.143,-3.657 12.8,0 3.657,3.657 3.657,9.143 0,12.8 l -91.429,91.429 c -1.829,1.829 -3.657,2.743 -6.4,2.743"
   id="path16"
   inkscape:connector-curvature="0" />
	<path
   style="fill:#ffffff"
   d="m 173.714,438.857 c -2.743,0 -4.571,-0.914 -6.4,-2.743 L 75.885,344.685 c -3.657,-3.657 -3.657,-9.143 0,-12.8 3.657,-3.657 9.143,-3.657 12.8,0 l 91.429,91.429 c 3.657,3.657 3.657,9.143 0,12.8 -1.828,1.829 -3.657,2.743 -6.4,2.743"
   id="path18"
   inkscape:connector-curvature="0" />
	<path
   style="fill:#ffffff"
   d="M 438.857,137.143 H 329.143 c -5.486,0 -9.143,-3.657 -9.143,-9.143 0,-5.486 3.657,-9.143 9.143,-9.143 h 109.714 c 5.486,0 9.143,3.657 9.143,9.143 0,5.486 -3.657,9.143 -9.143,9.143"
   id="path20"
   inkscape:connector-curvature="0" />
	<path
   style="fill:#ffffff"
   d="M 438.857,420.571 H 329.143 c -5.486,0 -9.143,-3.657 -9.143,-9.143 0,-5.486 3.657,-9.143 9.143,-9.143 h 109.714 c 5.486,0 9.143,3.657 9.143,9.143 0,5.486 -3.657,9.143 -9.143,9.143 z"
   id="path22"
   inkscape:connector-curvature="0" />
	<path
   style="fill:#ffffff"
   d="M 438.857,365.714 H 329.143 c -5.486,0 -9.143,-3.657 -9.143,-9.143 0,-5.486 3.657,-9.143 9.143,-9.143 h 109.714 c 5.486,0 9.143,3.657 9.143,9.143 0,5.486 -3.657,9.143 -9.143,9.143 z"
   id="path24"
   inkscape:connector-curvature="0" />
</g>
<g
   id="g28"
   transform="translate(0,-496)">
</g>
<g
   id="g30"
   transform="translate(0,-496)">
</g>
<g
   id="g32"
   transform="translate(0,-496)">
</g>
<g
   id="g34"
   transform="translate(0,-496)">
</g>
<g
   id="g36"
   transform="translate(0,-496)">
</g>
<g
   id="g38"
   transform="translate(0,-496)">
</g>
<g
   id="g40"
   transform="translate(0,-496)">
</g>
<g
   id="g42"
   transform="translate(0,-496)">
</g>
<g
   id="g44"
   transform="translate(0,-496)">
</g>
<g
   id="g46"
   transform="translate(0,-496)">
</g>
<g
   id="g48"
   transform="translate(0,-496)">
</g>
<g
   id="g50"
   transform="translate(0,-496)">
</g>
<g
   id="g52"
   transform="translate(0,-496)">
</g>
<g
   id="g54"
   transform="translate(0,-496)">
</g>
<g
   id="g56"
   transform="translate(0,-496)">
</g>
</svg>